HIERARCHY
ROOT Spine
{
    OFFSET 0.0 0.0 -0.0
    CHANNELS 6 Xposition Yposition Zposition Zrotation Xrotation Yrotation
    JOINT ShoulderCenter
    {
        OFFSET 0.0 31.816110610961914 0.0
        CHANNELS 3 Zrotation Xrotation Yrotation
        JOINT LeftShoulder
        {
            OFFSET 18.286205291748047 0.0 0.0
            CHANNELS 3 Zrotation Xrotation Yrotation
            JOINT LeftElbow
            {
                OFFSET 27.89105224609375 0.0 0.0
                CHANNELS 3 Zrotation Xrotation Yrotation
                JOINT LeftHand
                {
                    OFFSET 29.785259246826172 0.0 0.0
                    CHANNELS 3 Zrotation Xrotation Yrotation
                    End Site
                    {
                        OFFSET 11.914104461669922 0.0 0.0
                    }
                }
            }
        }
        JOINT RightShoulder
        {
            OFFSET -18.286205291748047 0.0 0.0
            CHANNELS 3 Zrotation Xrotation Yrotation
            JOINT RightElbow
            {
                OFFSET -27.89105224609375 0.0 0.0
                CHANNELS 3 Zrotation Xrotation Yrotation
                JOINT RightHand
                {
                    OFFSET -29.785259246826172 0.0 0.0
                    CHANNELS 3 Zrotation Xrotation Yrotation
                    End Site
                    {
                        OFFSET -11.914104461669922 0.0 0.0
                    }
                }
            }
        }
        End Site
        {
            OFFSET 0.0 12.726445198059082 0.0
        }
    }
    JOINT LeftHip
    {
        OFFSET 16.547243848131178 -16.547243848131178 0.0
        CHANNELS 3 Zrotation Xrotation Yrotation
        JOINT LeftKnee
        {
            OFFSET 0.0 -39.41718292236328 0.0
            CHANNELS 3 Zrotation Xrotation Yrotation
            JOINT LeftFoot
            {
                OFFSET 0.0 -42.90626907348633 0.0
                CHANNELS 3 Zrotation Xrotation Yrotation
                End Site
                {
                    OFFSET 0.0 0.0 17.162506103515625
                }
            }
        }
    }
    JOINT RightHip
    {
        OFFSET -16.547243848131178 -16.547243848131178 0.0
        CHANNELS 3 Zrotation Xrotation Yrotation
        JOINT RightKnee
        {
            OFFSET 0.0 -39.41718292236328 0.0
            CHANNELS 3 Zrotation Xrotation Yrotation
            JOINT RightFoot
            {
                OFFSET 0.0 -42.90626907348633 0.0
                CHANNELS 3 Zrotation Xrotation Yrotation
                End Site
                {
                    OFFSET 0.0 0.0 17.162506103515625
                }
            }
        }
    }
}
MOTION
Frames: 5
Frame Time: 0.03333333333333333
37.099998474121094 -6.0 -249.20001220703125 1.0809215375011796 3.2391583746337442 -9.318495128758519 1.1693946267343109e-07 -1.259959932836008e-07 13.992974332255752 111.84533521539537 49.600231453523946 152.46729663364295 -1.9994249654418498e-06 -5.18544105866575e-06 8.014280756806984 -1.5902773407317582e-15 3.1805546814635168e-15 -6.3611093629270335e-15 -97.17676808322764 -3.4243107462605136 173.98782508877608 7.487769951263054e-07 -2.3176882199022205e-08 -60.03432406225892 -3.1805546814635176e-15 0.0 0.0 4.5484084021693 -43.9433848067983 64.09845214486909 13.428222961380444 3.8681406328750647 -8.966536156930596 0.0 0.0 -9.14409470920761e-15 2.6426944120656786 21.400485790252844 40.63836768797026 -8.777618272480431 -10.778951692143867 -13.932802410807108 0.0 0.0 4.969616689786744e-16
37.599998474121094 -5.900000095367432 -243.1999969482422 0.18017208567216494 2.7005887144671656 -9.589906220924904 -2.9709893756026595e-09 -3.47347607155694e-08 13.644548973662069 118.27126927542041 53.242327125368035 147.0068549675245 -2.483459210593704e-06 1.568170556128774e-06 5.0592973763990345 -1.5902773407317584e-15 3.1805546814635168e-15 4.4139062980501586e-32 -96.7696641863575 -3.536820026099561 174.43039868030615 -1.5216957501197406e-06 4.031234696179364e-07 -62.591573289219504 -3.1805546814635168e-15 6.3611093629270335e-15 6.3611093629270335e-15 4.1454683458853845 -40.73031745489528 58.45343989149253 10.136844015600028 5.001762948218058 -10.804810579436179 0.0 0.0 1.1927080055488188e-15 1.3659944994070221 25.748834652679434 46.65812668223937 -9.634087950203213 -9.911321335062999 -12.991325106670848 7.951386703658791e-16 8.276074308844047e-33 1.1927080055488186e-15
38.0 -5.400000095367432 -236.99998474121094 -0.7184075083349031 1.7953769687035739 -8.847127839787277 -4.215437631750249e-09 5.9334991917446904e-08 12.916059195384527 161.241125729636 68.08468328845889 108.38009505361246 8.079432338857832e-08 4.028323392555521e-06 3.7310016059248525 3.1805546814635168e-15 -3.1805546814635168e-15 6.3611093629270335e-15 -95.79742909256505 -2.3065467168668308 177.36925183039503 1.7214043246216019e-06 1.121130188800238e-06 -63.983547047116886 3.1805546814635168e-15 0.0 0.0 3.9930176799533514 -38.59435705283435 54.82507446462008 13.277741671561435 7.704782116775227 -19.87551391739425 0.0 0.0 0.0 0.42817124857345096 29.58864414887565 51.16265596019551 -10.40919310973435 -9.237069614147648 -11.91449206339503 -7.951386703658791e-16 -3.586298867165754e-32 5.168401357378214e-15
38.400001525878906 -4.300000190734863 -230.89999389648438 -2.3409755733717033 1.6197826984218289 -6.056325109505451 2.717292563115018e-08 1.2030571607949944e-07 10.945509905889244 108.25509779933091 36.60622464239581 154.21207700181952 -4.440523175576073e-06 4.807571336795672e-06 4.866591317127951 7.951386703658792e-15 3.1805546814635168e-15 -2.2069531490250793e-31 -93.37865656288135 1.1372171714098687 -178.4262140338715 -1.5076964453623839e-06 -8.189536026119097e-07 -63.501155825525736 -1.5902773407317584e-15 3.1805546814635168e-15 4.4139062980501586e-32 3.3259334630554758 -36.34881163741242 47.48243583608005 14.100987637069338 11.44098875895879 -28.71157078720226 1.939704916135324e-34 4.969616689786746e-17 -4.472655020808071e-16 2.6810902089972695 15.839930495370432 40.97697719959007 12.805021768843153 13.094429450184599 10.945495550380137 -1.1034765745125397e-31 -3.975693351829396e-15 -3.1805546814635168e-15
38.80000305175781 -3.9000000953674316 -225.0 -2.7006224209729757 1.7991611668351224 -5.770202611724813 -1.5679398671807247e-07 9.325363810366755e-08 10.633701026030243 112.45134205299715 45.177389059901465 151.48356183084243 -2.2498154063748682e-06 2.1075258613397574e-05 6.977848435661395 -6.3611093629270335e-15 -7.062250076880254e-31 1.2722218725854067e-14 -91.80752173583804 3.9890117613282823 -174.59321174294377 -2.4837020164890816e-07 7.985338434626131e-07 -60.68331856498991 -1.5902773407317588e-15 0.0 0.0 2.9069310411398774 -34.46658305186893 44.40164464988601 14.709638766987688 14.911650881246281 -38.35358944107398 1.3793457181406746e-33 -1.5902773407317584e-15 9.93923337957349e-17 3.6284591548499914 7.859139886072514 31.05451092294889 17.067899732476615 31.88543788377998 23.839524062312023 0.0 0.0 -7.951386703658794e-16
